<?xml version="1.0" encoding="iso-8859-1"?>
<!-- Generator: Adobe Illustrator 19.0.0, SVG Export Plug-In . SVG Version: 6.00 Build 0)  -->
<svg version="1.1" id="Capa_1" xmlns="http://www.w3.org/2000/svg" xmlns:xlink="http://www.w3.org/1999/xlink" x="0px" y="0px"
	 viewBox="0 0 384.193 384.193" style="enable-background:new 0 0 384.193 384.193;" xml:space="preserve">
<path style="fill:#D74232;" d="M192.096,0c-88.366,0-160,71.633-160,160v144.558c0,1.725,0,2.422,0,2.422c0,2.278,0,6.262,0,13.226
	h96V160c0-35.291,28.711-64,64-64c35.29,0,64,28.709,64,64v160.207h96c0-11.674,0-14.008,0-14.386c0-0.07,0-0.094,0-0.094V160
	C352.096,71.633,280.462,0,192.096,0z"/>
<g>
	<rect x="32.096" y="320.193" style="fill:#CED8DF;" width="96" height="64"/>
	<rect x="256.096" y="320.193" style="fill:#CED8DF;" width="96" height="64"/>
</g>
<g>
</g>
<g>
</g>
<g>
</g>
<g>
</g>
<g>
</g>
<g>
</g>
<g>
</g>
<g>
</g>
<g>
</g>
<g>
</g>
<g>
</g>
<g>
</g>
<g>
</g>
<g>
</g>
<g>
</g>
</svg>
